<?xml version="1.0" encoding="UTF-8" standalone="no"?>
<svg
   version="1.0"
   width="900.000000pt"
   height="606.000000pt"
   viewBox="0 0 900.000000 606.000000"
   preserveAspectRatio="xMidYMid meet"
   id="svg3"
   sodipodi:docname="pLr6jU01.svg"
   inkscape:version="1.4 (e7c3feb1, 2024-10-09)"
   xmlns:inkscape="http://www.inkscape.org/namespaces/inkscape"
   xmlns:sodipodi="http://sodipodi.sourceforge.net/DTD/sodipodi-0.dtd"
   xmlns="http://www.w3.org/2000/svg"
   xmlns:svg="http://www.w3.org/2000/svg">
  <defs
     id="defs3" />
  <sodipodi:namedview
     id="namedview3"
     pagecolor="#505050"
     bordercolor="#ffffff"
     borderopacity="1"
     inkscape:showpageshadow="0"
     inkscape:pageopacity="0"
     inkscape:pagecheckerboard="1"
     inkscape:deskcolor="#505050"
     inkscape:document-units="pt"
     inkscape:zoom="0.47183822"
     inkscape:cx="634.75146"
     inkscape:cy="518.18609"
     inkscape:window-width="1512"
     inkscape:window-height="916"
     inkscape:window-x="0"
     inkscape:window-y="38"
     inkscape:window-maximized="1"
     inkscape:current-layer="svg3" />
  <metadata
     id="metadata1">
Created by potrace 1.10, written by Peter Selinger 2001-2011
</metadata>
  <g
     id="g11">
    <rect
       style="opacity:1;fill:#ffffff;stroke-width:0.75"
       id="rect11"
       width="775.68958"
       height="502.2908"
       x="66.76017"
       y="57.223007" />
    <g
       transform="translate(0.000000,606.000000) scale(0.100000,-0.100000)"
       fill="#ff2600"
       stroke="none"
       id="g3">
      <path
         d="M805 5590 c-27 -4 -65 -15 -83 -24 -37 -20 -115 -92 -125 -116 -4 -8 -11 -22 -16 -30 -43 -74 -41 63 -41 -2450 0 -2185 1 -2361 17 -2392 9 -18 23 -46 31 -63 21 -44 91 -114 132 -132 94 -43 -31 -42 3847 -42 2738 -1 3715 2 3750 10 27 7 63 19 82 28 41 20 131 98 131 115 0 7 5 17 12 24 6 6 20 38 30 69 17 55 18 172 18 2383 0 1657 -3 2336 -11 2365 -31 113 -86 184 -184 236 l-40 22 -3750 1 c-2062 1 -3772 -1 -3800 -4z m5920 -386 c90 -29 189 -84 242 -135 55 -52 113 -131 113 -153 0 -8 7 -19 15 -26 8 -7 15 -23 15 -35 0 -12 7 -42 15 -65 45 -126 -13 -336 -128 -464 -66 -74 -114 -106 -240 -160 -54 -23 -300 -23 -354 0 -107 46 -155 73 -200 113 -40 35 -103 115 -103 129 0 5 -7 15 -15 22 -8 7 -15 21 -15 32 0 10 -8 31 -17 45 -27 41 -26 293 1 349 49 102 61 124 68 124 5 0 8 6 8 14 0 16 107 118 144 138 67 36 116 58 161 71 68 21 226 22 290 1z m-4338 -17 c4 -5 9 -86 10 -180 l2 -172 152 -5 c83 -3 153 -3 155 -1 2 2 4 81 4 176 0 120 4 175 12 183 8 8 55 12 144 12 107 0 136 -3 148 -16 14 -14 16 -73 16 -504 l0 -489 -22 -15 c-17 -12 -50 -16 -141 -16 -65 0 -127 5 -138 10 -18 10 -19 23 -19 191 l0 180 -156 -3 -157 -3 2 -167 c3 -216 9 -208 -160 -208 -66 0 -129 5 -140 10 -18 10 -19 27 -19 508 0 385 3 501 13 511 14 14 279 12 294 -2z m1661 1 c8 -8 12 -51 12 -129 0 -97 -3 -118 -16 -123 -9 -3 -125 -6 -258 -6 -134 0 -245 -2 -247 -4 -2 -2 -2 -29 -1 -60 l4 -56 223 0 c190 0 226 -2 239 -16 12 -12 16 -38 16 -114 0 -137 12 -131 -260 -130 l-215 2 0 -57 0 -56 243 1 c154 0 249 -3 262 -10 18 -10 20 -21 20 -122 0 -90 -3 -115 -17 -130 -15 -17 -41 -18 -409 -18 -344 0 -395 2 -408 16 -14 14 -16 74 -16 509 0 460 1 495 18 504 26 16 794 15 810 -1z m502 -8 c6 -9 9 -156 8 -378 l-3 -362 231 0 c165 0 233 -3 242 -12 8 -8 12 -49 12 -120 0 -161 37 -148 -408 -148 -273 0 -371 3 -380 12 -18 18 -17 999 1 1017 19 19 284 11 297 -9z m924 14 c14 -5 16 -48 16 -380 l0 -374 238 -2 237 -3 3 -125 c2 -109 0 -126 -15 -137 -13 -10 -104 -13 -384 -13 l-368 0 -15 22 c-14 20 -16 84 -16 503 0 264 4 485 8 491 4 6 14 14 22 17 20 7 254 9 274 1z m-3288 -1240 c12 -3 27 -15 33 -27 6 -12 20 -35 31 -52 11 -16 24 -39 30 -50 12 -25 30 -53 51 -82 l17 -23 16 25 c9 13 16 27 16 30 0 10 73 120 82 123 5 2 8 10 8 17 0 25 43 45 95 45 27 0 56 -4 63 -8 9 -7 12 -75 10 -308 l-3 -299 -58 -3 c-35 -2 -64 2 -73 9 -11 9 -14 45 -14 163 l-1 151 -29 -35 c-16 -19 -30 -38 -30 -43 0 -14 -74 -107 -85 -107 -12 0 -49 37 -56 55 -2 6 -24 42 -49 80 l-45 70 -5 -170 -5 -170 -61 -3 c-44 -2 -64 1 -73 12 -9 10 -11 88 -9 300 3 242 5 288 18 296 17 11 93 13 126 4z m693 -20 c17 -14 31 -34 31 -44 0 -10 7 -23 15 -30 8 -7 15 -16 15 -21 0 -4 14 -29 32 -55 l31 -46 18 23 c10 13 19 29 19 36 0 6 6 18 13 25 7 7 16 20 20 28 43 87 71 110 133 110 29 0 59 -3 68 -6 23 -9 20 -43 -9 -80 -14 -18 -25 -35 -25 -38 0 -3 -13 -24 -29 -48 -15 -24 -49 -76 -75 -116 l-47 -73 -3 -120 c-2 -90 -6 -123 -17 -130 -8 -5 -43 -8 -79 -7 l-65 3 -3 124 c-3 118 -4 126 -31 160 -15 20 -31 43 -34 51 -4 8 -16 29 -27 45 -11 17 -23 37 -27 45 -3 8 -9 17 -12 20 -13 11 -51 70 -51 78 0 5 -7 15 -15 22 -18 15 -19 42 -3 58 7 7 38 12 69 12 47 0 63 -5 88 -26z m862 7 c13 -11 69 -80 124 -155 55 -74 103 -135 108 -136 4 0 7 61 7 135 0 122 2 137 20 155 24 24 111 28 129 6 8 -9 11 -99 9 -307 l-3 -294 -59 -3 c-56 -3 -61 -1 -88 30 -16 18 -36 45 -44 61 -8 15 -19 27 -24 27 -6 0 -10 5 -10 11 0 5 -13 24 -30 42 -16 18 -30 37 -30 42 -1 6 -23 35 -50 65 l-49 55 1 -156 c0 -86 -2 -161 -6 -168 -11 -16 -121 -14 -135 3 -9 10 -11 93 -9 300 3 242 5 288 18 296 26 17 96 11 121 -9z m851 2 c18 -21 58 -104 58 -120 0 -6 6 -24 14 -40 15 -30 41 -89 50 -113 3 -8 10 -22 15 -30 5 -8 17 -35 26 -60 21 -55 43 -106 61 -141 7 -15 15 -42 16 -60 l3 -34 -66 -3 c-62 -3 -68 -1 -88 24 -12 15 -21 34 -21 43 0 9 -7 26 -15 39 -15 20 -22 21 -123 17 -118 -4 -124 -7 -143 -77 -11 -44 -28 -51 -109 -46 -63 3 -73 20 -48 73 8 16 22 47 31 68 16 35 24 54 59 137 8 19 22 52 31 73 9 20 24 54 33 75 8 20 22 50 30 65 8 16 14 35 14 42 0 8 10 29 23 49 21 33 25 35 78 36 41 0 60 -5 71 -17z m473 -1 c18 -15 89 -124 123 -187 16 -31 30 -32 42 -2 13 28 28 53 63 98 15 20 27 41 27 47 0 6 14 22 32 37 28 24 38 27 87 23 37 -4 58 -11 67 -23 19 -26 20 -565 2 -583 -17 -17 -133 -16 -147 2 -8 10 -12 62 -11 158 1 78 1 148 0 153 0 9 -66 -92 -98 -151 -18 -33 -68 -34 -82 -1 -13 28 -33 60 -43 68 -4 3 -16 21 -26 39 -33 62 -37 47 -33 -103 5 -172 3 -177 -87 -177 -31 0 -62 5 -69 12 -9 9 -12 87 -12 290 0 265 1 279 20 298 26 26 115 28 145 2z m1006 8 c15 -9 19 -22 19 -69 0 -38 -5 -63 -14 -70 -10 -8 -58 -11 -148 -10 l-133 1 -3 -41 -3 -41 129 0 c144 0 142 1 142 -70 0 -71 2 -70 -141 -70 l-129 0 0 -51 0 -51 133 2 c72 1 140 2 150 1 16 -1 18 -9 15 -68 l-3 -68 -219 -3 c-153 -2 -223 1 -232 9 -11 9 -14 66 -14 293 0 154 4 286 8 292 4 6 14 14 22 17 27 10 400 7 421 -3z m515 -15 c11 -15 14 -78 14 -291 0 -234 -2 -275 -16 -288 -19 -19 -124 -22 -142 -4 -9 9 -12 88 -12 294 0 329 -3 319 88 312 38 -3 59 -11 68 -23z m420 10 c10 -8 27 -15 37 -15 10 0 32 -10 50 -22 18 -13 34 -24 36 -25 10 -6 -12 -53 -42 -87 -34 -38 -35 -39 -63 -23 -100 53 -131 57 -163 23 l-23 -25 33 -20 c19 -12 50 -23 69 -26 19 -3 48 -12 63 -20 16 -8 33 -15 39 -15 6 0 30 -15 53 -34 72 -59 79 -160 17 -244 -13 -18 -32 -36 -41 -39 -9 -3 -24 -13 -34 -21 -26 -23 -206 -21 -238 2 -13 9 -29 16 -36 16 -21 0 -81 44 -87 64 -11 42 88 130 108 97 25 -39 166 -67 194 -39 35 35 -7 69 -106 88 -24 4 -49 13 -55 19 -6 6 -18 11 -27 11 -32 0 -89 69 -96 115 -14 96 23 171 104 213 48 25 178 29 208 7z m1158 -845 c22 -8 62 -38 90 -66 92 -92 86 -4 86 -1190 0 -1008 -1 -1043 -19 -1085 -29 -64 -83 -121 -136 -142 -5 -2 -26 -9 -46 -16 -51 -16 -7097 -16 -7148 0 -20 6 -49 18 -66 27 -36 18 -105 91 -105 112 0 8 -7 24 -15 34 -22 30 -22 2131 0 2160 8 11 15 28 15 37 0 20 107 119 129 119 9 1 27 7 41 15 38 22 7116 17 7174 -5z"
         id="path1" />
      <path
         d="M6480 4913 c-43 -29 -72 -57 -99 -98 -23 -36 -26 -49 -26 -135 0 -89 2 -98 30 -140 17 -24 51 -58 75 -75 41 -27 52 -30 127 -29 63 0 87 4 101 17 10 9 24 17 30 17 31 0 102 139 102 199 0 40 -32 144 -53 171 -10 14 -40 39 -65 57 -43 29 -54 32 -122 32 -52 0 -83 -5 -100 -16z"
         id="path2" />
      <path
         d="M4512 3718 c-7 -7 -12 -20 -12 -30 0 -10 -5 -27 -12 -38 -15 -24 -12 -27 37 -32 34 -3 40 0 43 18 2 11 -4 27 -13 34 -8 7 -15 21 -15 31 0 23 -14 31 -28 17z"
         id="path3" />
    </g>
  </g>
</svg>
